<svg xmlns="http://www.w3.org/2000/svg" viewBox="0 0 32 32" fill="none">
  <rect width="32" height="32" rx="8" fill="#3a6735"/>
  <path d="M16 6C16 6 10 10 10 16C10 19.3 12.7 22 16 22C19.3 22 22 19.3 22 16C22 10 16 6 16 6Z" fill="#6fa068"/>
  <path d="M16 10C16 10 13 13 13 16C13 17.7 14.3 19 16 19C17.7 19 19 17.7 19 16C19 13 16 10 16 10Z" fill="#c8dbc4"/>
  <circle cx="16" cy="16" r="2" fill="#fdfdf8"/>
  <path d="M22 24L26 28" stroke="#e07b54" stroke-width="2.5" stroke-linecap="round"/>
</svg>
